Coordinates
version=1
nRows=54
nColumns=12
inDegrees=yes

Units are S.I. units (second, meters, Newtons, ...)
Angles are in degrees

endheader
time	SC_y	SC_z	SC_x	AC_y	AC_z	AC_x	GH_y	GH_z	GH_yy	EL_x	PS_y
       0.0              -36.65           21.8          1.143          34.55          -13.2          8.528          17.69          89.62         -53.26          137.1          55.06
   0.02207              -36.65           21.8          1.144          34.55          -13.2          8.525          17.67          89.62         -53.27          137.1          55.06
   0.04414              -36.66           21.8          1.144          34.55          -13.2          8.522          17.66          89.61         -53.28          137.1          55.07
   0.06621              -36.66          21.81          1.145          34.55          -13.2          8.519          17.65          89.61         -53.29          137.1          55.07
   0.08827              -36.66          21.81          1.146          34.55          -13.2          8.515          17.63           89.6         -53.31          137.1          55.08
    0.1103              -36.66          21.81          1.146          34.55          -13.2          8.511          17.61           89.6         -53.32          137.1          55.08
    0.1324              -36.66          21.81          1.147          34.55          -13.2          8.508           17.6          89.59         -53.34          137.0          55.09
    0.1545              -36.66          21.81          1.148          34.55          -13.2          8.503          17.58          89.58         -53.36          137.0          55.09
    0.1765              -36.66          21.81          1.149          34.55          -13.2          8.499          17.56          89.58         -53.38          137.0           55.1
    0.1986              -36.66          21.82           1.15          34.55          -13.2          8.494          17.54          89.57          -53.4          137.0           55.1
    0.2207              -36.66          21.82          1.151          34.55          -13.2          8.489          17.51          89.56         -53.42          137.0          55.11
    0.2428              -36.66          21.82          1.152          34.55          -13.2          8.483          17.49          89.55         -53.44          137.0          55.12
    0.2648              -36.66          21.82          1.153          34.55          -13.2          8.477          17.46          89.54         -53.47          137.0          55.13
    0.2869              -36.66          21.82          1.155          34.55          -13.2          8.471          17.43          89.53         -53.49          137.0          55.13
     0.309              -36.66          21.83          1.156          34.55          -13.2          8.464           17.4          89.52         -53.52          137.0          55.14
     0.331              -36.67          21.83          1.158          34.55          -13.2          8.456          17.37          89.51         -53.55          137.0          55.15
    0.3531              -36.67          21.83           1.16          34.55          -13.2          8.448          17.33          89.49         -53.59          137.0          55.16
    0.3752              -36.67          21.84          1.161          34.55          -13.2          8.439          17.29          89.48         -53.63          137.0          55.18
    0.3972              -36.67          21.84          1.163          34.55          -13.2          8.429          17.24          89.46         -53.67          136.9          55.19
    0.4193              -36.67          21.85          1.166          34.55         -13.19          8.418           17.2          89.45         -53.71          136.9           55.2
    0.4414              -36.67          21.85          1.168          34.55         -13.19          8.406          17.14          89.43         -53.76          136.9          55.22
    0.4634              -36.68          21.85          1.171          34.55         -13.19          8.393          17.09          89.41         -53.81          136.9          55.23
    0.4855              -36.68          21.86          1.174          34.55         -13.19          8.379          17.02          89.38         -53.87          136.9          55.25
    0.5076              -36.68          21.87          1.177          34.55         -13.19          8.363          16.95          89.36         -53.94          136.9          55.27
    0.5296              -36.68          21.87          1.181          34.55         -13.19          8.345          16.87          89.33         -54.01          136.8           55.3
    0.5517              -36.69          21.88          1.185          34.56         -13.19          8.325          16.78           89.3          -54.1          136.8          55.32
    0.5738              -36.69          21.89          1.189          34.56         -13.19          8.303          16.68          89.26         -54.19          136.8          55.35
    0.5959              -36.69           21.9          1.194          34.56         -13.18          8.278          16.57          89.22         -54.29          136.8          55.38
    0.6179               -36.7          21.91            1.2          34.56         -13.18           8.25          16.45          89.17         -54.41          136.7          55.42
      0.64               -36.7          21.92          1.207          34.56         -13.18          8.217           16.3          89.12         -54.54          136.7          55.46
    0.6621              -36.71          21.94          1.214          34.56         -13.18          8.181          16.14          89.06         -54.69          136.6          55.51
    0.6841              -36.72          21.95          1.223          34.57         -13.17          8.139          15.95          88.99         -54.86          136.6          55.56
    0.7062              -36.72          21.97          1.233          34.57         -13.17           8.09          15.74          88.92         -55.07          136.5          55.63
    0.7283              -36.73           22.0          1.244          34.57         -13.16          8.034          15.48          88.83          -55.3          136.5           55.7
    0.7503              -36.74          22.02          1.258          34.57         -13.16          7.968          15.19          88.72         -55.57          136.4          55.78
    0.7724              -36.75          22.05          1.274          34.58         -13.15           7.89          14.84          88.59         -55.89          136.3          55.88
    0.7945              -36.77          22.09          1.293          34.58         -13.15          7.798          14.43          88.44         -56.27          136.2           56.0
    0.8165              -36.79          22.13          1.316          34.59         -13.14          7.687          13.94          88.26         -56.73          136.0          56.15
    0.8386              -36.81          22.19          1.343          34.59         -13.13          7.553          13.34          88.05         -57.29          135.8          56.32
    0.8607              -36.83          22.25          1.377           34.6         -13.11           7.39          12.61          87.78         -57.96          135.6          56.53
    0.8827              -36.87          22.33          1.418          34.61          -13.1          7.188          11.71          87.46          -58.8          135.4          56.79
    0.9048               -36.9          22.43           1.47          34.63         -13.08          6.936          10.59          87.05         -59.84          135.1          57.12
    0.9269              -36.95          22.55          1.535          34.64         -13.05          6.619          9.171          86.54         -61.15          134.7          57.53
     0.949              -37.02          22.71          1.618          34.66         -13.02          6.216          7.373          85.88         -62.82          134.2          58.05
     0.971               -37.1          22.92          1.724          34.69         -12.98          5.699           5.07          85.05         -64.96          133.5          58.72
    0.9931               -37.2          23.18           1.86          34.72         -12.93          5.037          2.116          83.98          -67.7          132.7          59.58
     1.015              -37.34          23.51          2.033          34.76         -12.86          4.191         -1.658          82.61          -71.2          131.6          60.67
     1.037               -37.5          23.93          2.252          34.82         -12.77          3.127         -6.404          80.89          -75.6          130.3          62.05
     1.059              -37.71          24.44          2.518          34.88         -12.67          1.831         -12.19          78.79         -80.96          128.6          63.72
     1.081              -37.95          25.03          2.827          34.96         -12.55         0.3279         -18.89          76.36         -87.17          126.7          65.67
     1.103               -38.2          25.67          3.161          35.04         -12.42         -1.299         -26.15          73.73          -93.9          124.7          67.77
     1.126              -38.46          26.31          3.495          35.12         -12.29         -2.926         -33.41           71.1         -100.6          122.6          69.88
     1.148              -38.69           26.9          3.803          35.19         -12.17         -4.429         -40.11          68.67         -106.9          120.8          71.82
      1.17               -38.9          27.41          4.069          35.26         -12.07         -5.726         -45.89          66.58         -112.2          119.1           73.5
